<svg width="41" height="36" viewBox="0 0 41 36" fill="none" xmlns="http://www.w3.org/2000/svg">
    <path d="M20.684 0.25902C20.5692 0.0622216 20.3232 -0.00337937 20.1428 0.11142C20.0772 0.144219 20.028 0.19342 19.9952 0.25902L0.0529805 35.3383C-0.0618186 35.5351 0.0201797 35.7811 0.200578 35.8795C0.266178 35.9123 0.331777 35.9287 0.397376 35.9287H40.5934C40.8066 35.9287 40.987 35.7483 40.987 35.5351C40.987 35.4695 40.9706 35.3875 40.9378 35.3383L20.684 0.25902ZM16.3544 23.0056L23.5048 21.054L21.5696 28.1552L16.3544 23.0056Z" fill="white"/>
    <path d="M0.397376 35.9451H8.48251L15.9116 7.4585L0.0529804 35.3547C-0.0618186 35.5515 0.0201797 35.7975 0.200578 35.8959C0.266178 35.9287 0.331777 35.9451 0.397376 35.9451Z" fill="white"/>
    <path d="M36.9854 28.4832L8.48242 35.9451H40.5933C40.8065 35.9451 40.9869 35.7647 40.9869 35.5515C40.9869 35.4859 40.9705 35.4039 40.9377 35.3547L36.9854 28.4832Z" fill="white"/>
    <path d="M32.6066 24.1208L36.9854 28.4831L20.7003 0.275375C20.5855 0.0785771 20.3395 0.0129787 20.1591 0.127778C20.0935 0.160577 20.0443 0.209776 20.0115 0.275375L15.928 7.47492L32.6066 24.1044V24.1208Z" fill="white"/>
    <path d="M8.48242 35.9449L14.3536 34.4033L14.3208 13.5427L8.48242 35.9449Z" fill="white"/>
    <path d="M14.3208 13.5428L32.6066 24.1208L15.9116 7.4585L14.3208 13.5428Z" fill="white"/>
    <path d="M14.3535 34.4036L36.9853 28.4832L32.6066 24.1208L14.3535 34.4036Z" fill="white"/>
    <path d="M14.3536 34.4036L18.2731 32.1896L14.3372 17.9709L14.3536 34.4036Z" fill="white"/>
    <path d="M32.6067 24.1208L28.7527 21.8904L18.2732 32.1895L32.6067 24.1208Z" fill="white"/>
    <path d="M14.3372 17.9709L28.7527 21.8905L14.3208 13.543L14.3372 17.9709Z" fill="white"/>
    <path d="M23.5047 21.0541H25.7187L14.3372 17.9709L15.1736 21.0377L23.4719 21.0541H23.5047Z" fill="white"/>
    <path d="M16.3216 22.9728L15.1736 21.0376L18.2732 32.1895L20.4543 30.0411L16.3544 23.0056L16.3216 22.9728Z" fill="white"/>
    <path d="M25.7187 21.0542L20.4543 30.0413L28.7527 21.8906L25.7187 21.0542Z" fill="white"/>
    <path d="M23.5047 21.054L15.1736 21.0376L16.3544 23.0056L23.5047 21.054Z" fill="white"/>
    <path d="M21.5696 28.1552L16.3545 23.0056L20.4545 30.0412L21.5696 28.1552Z" fill="white"/>
    <path d="M25.7187 21.054H23.5048L21.5696 28.1551L25.7187 21.054Z" fill="white"/>
    <path d="M0.397376 35.9451H8.48251L15.9116 7.4585L0.0529804 35.3547C-0.0618186 35.5515 0.0201797 35.7975 0.200578 35.8959C0.266178 35.9287 0.331777 35.9451 0.397376 35.9451Z" fill="url(#paint0_linear)"/>
    <path d="M36.9854 28.4832L8.48242 35.9451H40.5933C40.8065 35.9451 40.9869 35.7647 40.9869 35.5515C40.9869 35.4859 40.9705 35.4039 40.9377 35.3547L36.9854 28.4832Z" fill="url(#paint1_linear)"/>
    <path d="M32.6066 24.1208L36.9854 28.4831L20.7003 0.275375C20.5855 0.0785771 20.3395 0.0129787 20.1591 0.127778C20.0935 0.160577 20.0443 0.209776 20.0115 0.275375L15.928 7.47492L32.6066 24.1044V24.1208Z" fill="url(#paint2_linear)"/>
    <path d="M8.48242 35.9449L14.3536 34.4033L14.3208 13.5427L8.48242 35.9449Z" fill="url(#paint3_linear)"/>
    <path d="M14.3208 13.5428L32.6066 24.1208L15.9116 7.4585L14.3208 13.5428Z" fill="url(#paint4_linear)"/>
    <path d="M14.3535 34.4036L36.9853 28.4832L32.6066 24.1208L14.3535 34.4036Z" fill="url(#paint5_linear)"/>
    <path d="M14.3536 34.4036L18.2731 32.1896L14.3372 17.9709L14.3536 34.4036Z" fill="url(#paint6_linear)"/>
    <path d="M32.6067 24.1208L28.7527 21.8904L18.2732 32.1895L32.6067 24.1208Z" fill="url(#paint7_linear)"/>
    <path d="M14.3372 17.9709L28.7527 21.8905L14.3208 13.543L14.3372 17.9709Z" fill="url(#paint8_linear)"/>
    <path d="M23.5047 21.0541H25.7187L14.3372 17.9709L15.1736 21.0377L23.4719 21.0541H23.5047Z" fill="url(#paint9_linear)"/>
    <path d="M16.3216 22.9728L15.1736 21.0376L18.2732 32.1895L20.4543 30.0411L16.3544 23.0056L16.3216 22.9728Z" fill="url(#paint10_linear)"/>
    <path d="M25.7187 21.0542L20.4543 30.0413L28.7527 21.8906L25.7187 21.0542Z" fill="url(#paint11_linear)"/>
    <path d="M23.5047 21.054L15.1736 21.0376L16.3544 23.0056L23.5047 21.054Z" fill="url(#paint12_linear)"/>
    <path d="M21.5696 28.1552L16.3545 23.0056L20.4545 30.0412L21.5696 28.1552Z" fill="url(#paint13_linear)"/>
    <path d="M25.7187 21.054H23.5048L21.5696 28.1551L25.7187 21.054Z" fill="url(#paint14_linear)"/>
    <defs>
    <linearGradient id="paint0_linear" x1="9.46302" y1="35.8404" x2="6.58344" y2="8.4335" gradientUnits="userSpaceOnUse">
    <stop stop-color="#C3C4C3"/>
    <stop offset="0.09" stop-color="#D8D8D8"/>
    <stop offset="0.21" stop-color="#E9EAE9"/>
    <stop offset="0.36" stop-color="#F6F6F6"/>
    <stop offset="0.55" stop-color="#FDFDFD"/>
    <stop offset="1" stop-color="white"/>
    </linearGradient>
    <linearGradient id="paint1_linear" x1="36.2609" y1="27.4779" x2="14.054" y2="43.6132" gradientUnits="userSpaceOnUse">
    <stop stop-color="#C3C4C3"/>
    <stop offset="0.09" stop-color="#D8D8D8"/>
    <stop offset="0.21" stop-color="#E9EAE9"/>
    <stop offset="0.36" stop-color="#F6F6F6"/>
    <stop offset="0.55" stop-color="#FDFDFD"/>
    <stop offset="1" stop-color="white"/>
    </linearGradient>
    <linearGradient id="paint2_linear" x1="15.498" y1="8.38916" x2="40.894" y2="19.6958" gradientUnits="userSpaceOnUse">
    <stop stop-color="#C3C4C3"/>
    <stop offset="0.09" stop-color="#D8D8D8"/>
    <stop offset="0.21" stop-color="#E9EAE9"/>
    <stop offset="0.36" stop-color="#F6F6F6"/>
    <stop offset="0.55" stop-color="#FDFDFD"/>
    <stop offset="1" stop-color="white"/>
    </linearGradient>
    <linearGradient id="paint3_linear" x1="12.5347" y1="35.5174" x2="10.2701" y2="13.9719" gradientUnits="userSpaceOnUse">
    <stop stop-color="#B7B8B8"/>
    <stop offset="0.11" stop-color="#C9CACA"/>
    <stop offset="0.3" stop-color="#E1E1E1"/>
    <stop offset="0.51" stop-color="#F2F2F2"/>
    <stop offset="0.73" stop-color="#FCFCFC"/>
    <stop offset="1" stop-color="white"/>
    </linearGradient>
    <linearGradient id="paint4_linear" x1="14.1963" y1="11.3027" x2="34.3236" y2="20.2634" gradientUnits="userSpaceOnUse">
    <stop stop-color="#B7B8B8"/>
    <stop offset="0.11" stop-color="#C9CACA"/>
    <stop offset="0.3" stop-color="#E1E1E1"/>
    <stop offset="0.51" stop-color="#F2F2F2"/>
    <stop offset="0.73" stop-color="#FCFCFC"/>
    <stop offset="1" stop-color="white"/>
    </linearGradient>
    <linearGradient id="paint5_linear" x1="34.4849" y1="25.0356" x2="16.854" y2="37.8446" gradientUnits="userSpaceOnUse">
    <stop stop-color="#B7B8B8"/>
    <stop offset="0.11" stop-color="#C9CACA"/>
    <stop offset="0.3" stop-color="#E1E1E1"/>
    <stop offset="0.51" stop-color="#F2F2F2"/>
    <stop offset="0.73" stop-color="#FCFCFC"/>
    <stop offset="1" stop-color="white"/>
    </linearGradient>
    <linearGradient id="paint6_linear" x1="16.5202" y1="33.7845" x2="12.1639" y2="18.5917" gradientUnits="userSpaceOnUse">
    <stop stop-color="#B7B8B8"/>
    <stop offset="0.21" stop-color="#CECFCF"/>
    <stop offset="0.52" stop-color="#E9E9E9"/>
    <stop offset="0.79" stop-color="#F9F9F9"/>
    <stop offset="1" stop-color="white"/>
    </linearGradient>
    <linearGradient id="paint7_linear" x1="30.9207" y1="22.4809" x2="19.9609" y2="33.8277" gradientUnits="userSpaceOnUse">
    <stop stop-color="#B7B8B8"/>
    <stop offset="0.21" stop-color="#CECFCF"/>
    <stop offset="0.52" stop-color="#E9E9E9"/>
    <stop offset="0.79" stop-color="#F9F9F9"/>
    <stop offset="1" stop-color="white"/>
    </linearGradient>
    <linearGradient id="paint8_linear" x1="13.7659" y1="15.7783" x2="29.3157" y2="19.6551" gradientUnits="userSpaceOnUse">
    <stop stop-color="#B7B8B8"/>
    <stop offset="0.21" stop-color="#CECFCF"/>
    <stop offset="0.52" stop-color="#E9E9E9"/>
    <stop offset="0.79" stop-color="#F9F9F9"/>
    <stop offset="1" stop-color="white"/>
    </linearGradient>
    <linearGradient id="paint9_linear" x1="14.2116" y1="19.4616" x2="25.768" y2="20.3718" gradientUnits="userSpaceOnUse">
    <stop stop-color="#ABACAC"/>
    <stop offset="0.19" stop-color="#BDBEBE"/>
    <stop offset="0.73" stop-color="#EDEDED"/>
    <stop offset="1" stop-color="white"/>
    </linearGradient>
    <linearGradient id="paint10_linear" x1="19.5807" y1="31.5576" x2="14.5904" y2="21.3244" gradientUnits="userSpaceOnUse">
    <stop stop-color="#ABACAC"/>
    <stop offset="0.19" stop-color="#BDBEBE"/>
    <stop offset="0.73" stop-color="#EDEDED"/>
    <stop offset="1" stop-color="white"/>
    </linearGradient>
    <linearGradient id="paint11_linear" x1="27.5212" y1="21.0521" x2="21.1449" y2="30.5033" gradientUnits="userSpaceOnUse">
    <stop stop-color="#ABACAC"/>
    <stop offset="0.19" stop-color="#BDBEBE"/>
    <stop offset="0.73" stop-color="#EDEDED"/>
    <stop offset="1" stop-color="white"/>
    </linearGradient>
    <linearGradient id="paint12_linear" x1="15.6916" y1="22.4104" x2="22.9851" y2="19.6845" gradientUnits="userSpaceOnUse">
    <stop stop-color="#9FA0A0"/>
    <stop offset="0.17" stop-color="#A5A6A6"/>
    <stop offset="0.4" stop-color="#B5B6B6"/>
    <stop offset="0.66" stop-color="#D0D1D1"/>
    <stop offset="0.94" stop-color="#F6F6F6"/>
    <stop offset="1" stop-color="white"/>
    </linearGradient>
    <linearGradient id="paint13_linear" x1="21.3441" y1="28.9925" x2="15.4698" y2="24.0625" gradientUnits="userSpaceOnUse">
    <stop stop-color="#9FA0A0"/>
    <stop offset="0.17" stop-color="#A5A6A6"/>
    <stop offset="0.4" stop-color="#B5B6B6"/>
    <stop offset="0.66" stop-color="#D0D1D1"/>
    <stop offset="0.94" stop-color="#F6F6F6"/>
    <stop offset="1" stop-color="white"/>
    </linearGradient>
    <linearGradient id="paint14_linear" x1="24.3084" y1="20.8128" x2="22.9701" y2="28.4045" gradientUnits="userSpaceOnUse">
    <stop stop-color="#9FA0A0"/>
    <stop offset="0.17" stop-color="#A5A6A6"/>
    <stop offset="0.4" stop-color="#B5B6B6"/>
    <stop offset="0.66" stop-color="#D0D1D1"/>
    <stop offset="0.94" stop-color="#F6F6F6"/>
    <stop offset="1" stop-color="white"/>
    </linearGradient>
    </defs>
</svg>
